<svg width="105" height="20" viewBox="0 0 105 20" fill="none" xmlns="http://www.w3.org/2000/svg">
<path d="M0 10.0998C0 3.9998 3.3 0.299805 8.7 0.299805C12.8 0.299805 16.1 2.7998 16.7 6.4998C16.8 6.8998 16.5 7.1998 16.1 7.1998H13.5C13.2 7.1998 13 6.9998 12.9 6.6998C12.4 4.7998 10.8 3.5998 8.7 3.5998C5.8 3.5998 4 6.0998 4 10.0998C4 14.0998 5.8 16.5998 8.8 16.5998C10.9 16.5998 12.4 15.4998 13 13.6998C13.1 13.3998 13.3 13.1998 13.6 13.1998H16.2C16.6 13.1998 16.9 13.5998 16.8 13.8998C16.2 17.4998 13 19.8998 8.8 19.8998C3.3 19.8998 0 16.0998 0 10.0998Z" fill="#1E212C"/>
<path d="M24.2997 19.4001H21.3997C21.0997 19.4001 20.8997 19.2001 20.8997 18.9001V1.60006C20.8997 1.20006 21.2997 0.800061 21.6997 0.800061H28.6997C32.7997 0.800061 35.2997 3.10006 35.2997 6.70006C35.2997 8.80006 34.2997 10.7001 32.5997 11.7001C32.1997 11.9001 32.0997 12.4001 32.2997 12.7001L35.3997 18.6001C35.5997 18.9001 35.2997 19.3001 34.9997 19.3001H31.6997C31.4997 19.3001 31.2997 19.2001 31.1997 19.0001L28.2997 13.0001C28.1997 12.7001 27.8997 12.6001 27.5997 12.6001H25.2997C24.9997 12.6001 24.7997 12.8001 24.7997 13.1001V19.0001C24.8997 19.2001 24.5997 19.4001 24.2997 19.4001ZM24.8997 9.20006C24.8997 9.50006 25.0997 9.70006 25.3997 9.70006H28.3997C30.3997 9.70006 31.4997 8.60006 31.4997 6.80006C31.4997 5.00006 30.2997 3.90006 28.3997 3.90006H25.4997C25.1997 3.90006 24.9997 4.10006 24.9997 4.40006V9.20006H24.8997Z" fill="#1E212C"/>
<path d="M51.4998 19.4001H40.4998C40.0998 19.4001 39.7998 19.1001 39.7998 18.7001V1.50006C39.7998 1.10006 40.0998 0.800061 40.4998 0.800061H51.4998C51.8998 0.800061 52.1998 1.10006 52.1998 1.50006V3.40006C52.1998 3.80006 51.8998 4.10006 51.4998 4.10006H44.1998C43.8998 4.10006 43.6998 4.30006 43.6998 4.60006V8.00006C43.6998 8.30006 43.8998 8.50006 44.1998 8.50006H50.9998C51.3998 8.50006 51.6998 8.80006 51.6998 9.20006V10.9001C51.6998 11.3001 51.3998 11.6001 50.9998 11.6001H44.1998C43.8998 11.6001 43.6998 11.8001 43.6998 12.1001V15.9001C43.6998 16.2001 43.8998 16.4001 44.1998 16.4001H51.4998C51.8998 16.4001 52.1998 16.7001 52.1998 17.1001V19.0001C52.1998 19.1001 51.8998 19.4001 51.4998 19.4001Z" fill="#1E212C"/>
<path d="M66.9999 14.9001H61.2999C60.9999 14.9001 60.7999 15.1001 60.6999 15.3001L59.5999 19.0001C59.4999 19.3001 59.2999 19.4001 58.9999 19.4001H56.3999C55.9999 19.4001 55.6999 19.0001 55.7999 18.6001L61.7999 1.20006C61.8999 1.00006 62.0999 0.800061 62.3999 0.800061H66.0999C66.3999 0.800061 66.5999 1.00006 66.6999 1.20006L72.6999 18.6001C72.7999 19.0001 72.4999 19.4001 72.0999 19.4001H69.1999C68.8999 19.4001 68.6999 19.2001 68.5999 19.0001L67.4999 15.3001C67.4999 15.1001 67.1999 14.9001 66.9999 14.9001ZM62.0999 12.0001H66.1999C66.3999 12.0001 66.4999 11.8001 66.4999 11.6001L64.2999 4.60006H64.0999L61.8999 11.6001C61.7999 11.8001 61.8999 12.0001 62.0999 12.0001Z" fill="#1E212C"/>
<path d="M79.0001 18.7005V4.50045C79.0001 4.20045 78.8001 4.00045 78.5001 4.00045H74.1001C73.7001 4.00045 73.3001 3.70045 73.3001 3.20045V1.50045C73.3001 1.10045 73.6001 0.700451 74.1001 0.700451H87.7001C88.1001 0.700451 88.5001 1.00045 88.5001 1.50045V3.20045C88.5001 3.60045 88.2001 4.00045 87.7001 4.00045H83.3001C83.0001 4.00045 82.8001 4.20045 82.8001 4.50045V18.8004C82.8001 19.2004 82.5001 19.5005 82.1001 19.5005H79.6001C79.3001 19.4004 79.0001 19.1005 79.0001 18.7005Z" fill="#1E212C"/>
<path d="M103.8 19.4001H92.7999C92.3999 19.4001 92.0999 19.1001 92.0999 18.7001V1.50006C92.0999 1.10006 92.3999 0.800061 92.7999 0.800061H103.8C104.2 0.800061 104.5 1.10006 104.5 1.50006V3.40006C104.5 3.80006 104.2 4.10006 103.8 4.10006H96.4999C96.1999 4.10006 95.9999 4.30006 95.9999 4.60006V8.00006C95.9999 8.30006 96.1999 8.50006 96.4999 8.50006H103.3C103.7 8.50006 104 8.80006 104 9.20006V10.9001C104 11.3001 103.7 11.6001 103.3 11.6001H96.4999C96.1999 11.6001 95.9999 11.8001 95.9999 12.1001V15.9001C95.9999 16.2001 96.1999 16.4001 96.4999 16.4001H103.8C104.2 16.4001 104.5 16.7001 104.5 17.1001V19.0001C104.5 19.1001 104.2 19.4001 103.8 19.4001Z" fill="#1E212C"/>
</svg>
